<svg xmlns="http://www.w3.org/2000/svg" viewBox="0 0 27 18" width="24" height="16">
  <defs>
    <!-- Diagonal clip path for US (top-left triangle) -->
    <clipPath id="usTriangle">
      <polygon points="0,0 27,0 0,18"/>
    </clipPath>
    
    <!-- Diagonal clip path for UK (bottom-right triangle) -->
    <clipPath id="ukTriangle">
      <polygon points="27,0 27,18 0,18"/>
    </clipPath>
  </defs>
  
  <!-- US Flag in top-left triangle -->
  <g clip-path="url(#usTriangle)">
    <!-- US Flag background -->
    <rect width="27" height="18" fill="#B22234"/>
    
    <!-- White stripes -->
    <rect x="0" y="1.4" width="27" height="1.4" fill="white"/>
    <rect x="0" y="4.2" width="27" height="1.4" fill="white"/>
    <rect x="0" y="7" width="27" height="1.4" fill="white"/>
    <rect x="0" y="9.8" width="27" height="1.4" fill="white"/>
    <rect x="0" y="12.6" width="27" height="1.4" fill="white"/>
    <rect x="0" y="15.4" width="27" height="1.4" fill="white"/>
    
    <!-- Blue canton -->
    <rect x="0" y="0" width="10.8" height="9.8" fill="#3C3B6E"/>
    
    <!-- Stars -->
    <circle cx="2.2" cy="1.6" r="0.3" fill="white"/>
    <circle cx="5.4" cy="1.6" r="0.3" fill="white"/>
    <circle cx="8.6" cy="1.6" r="0.3" fill="white"/>
    <circle cx="2.2" cy="4.9" r="0.3" fill="white"/>
    <circle cx="5.4" cy="4.9" r="0.3" fill="white"/>
    <circle cx="8.6" cy="4.9" r="0.3" fill="white"/>
    <circle cx="2.2" cy="8.2" r="0.3" fill="white"/>
    <circle cx="5.4" cy="8.2" r="0.3" fill="white"/>
    <circle cx="8.6" cy="8.2" r="0.3" fill="white"/>
  </g>
  
  <!-- UK Flag in bottom-right triangle -->
  <g clip-path="url(#ukTriangle)">
    <!-- UK Flag background -->
    <rect width="27" height="18" fill="#012169"/>
    
    <!-- White diagonal cross (St. Andrew) -->
    <path d="M0,0 L27,18 M27,0 L0,18" stroke="white" stroke-width="3"/>
    
    <!-- Red diagonal cross (St. Patrick) -->
    <path d="M0,0 L27,18 M27,0 L0,18" stroke="#C8102E" stroke-width="1.5"/>
    
    <!-- White straight cross (St. George) -->
    <path d="M13.5,0 L13.5,18 M0,9 L27,9" stroke="white" stroke-width="5"/>
    
    <!-- Red straight cross (St. George) -->
    <path d="M13.5,0 L13.5,18 M0,9 L27,9" stroke="#C8102E" stroke-width="3"/>
  </g>
  
  <!-- Diagonal dividing line -->
  <line x1="0" y1="0" x2="27" y2="18" stroke="#333" stroke-width="0.5" opacity="0.4"/>
</svg>
